<?xml version="1.0" encoding="UTF-8"?>
<svg id="Layer_1" xmlns="http://www.w3.org/2000/svg" xmlns:xlink="http://www.w3.org/1999/xlink" version="1.1" viewBox="0 0 866 866">
  <!-- Generator: Adobe Illustrator 29.7.1, SVG Export Plug-In . SVG Version: 2.1.1 Build 8)  -->
  <defs>
    <style>
      .st0 {
        stroke: url(#linear-gradient1);
      }

      .st0, .st1, .st2, .st3, .st4, .st5, .st6, .st7, .st8, .st9, .st10, .st11, .st12, .st13, .st14, .st15, .st16, .st17, .st18, .st19, .st20, .st21, .st22, .st23, .st24, .st25, .st26, .st27, .st28, .st29, .st30, .st31, .st32, .st33, .st34 {
        fill: none;
      }

      .st0, .st1, .st2, .st8, .st9, .st10, .st11, .st12, .st13, .st14, .st15, .st16, .st17, .st18, .st19, .st20, .st21, .st22, .st23, .st24, .st25, .st26, .st27, .st28, .st29, .st30, .st31, .st32, .st33, .st34 {
        stroke-width: .72px;
      }

      .st1 {
        stroke: url(#linear-gradient3);
      }

      .st2 {
        stroke: url(#linear-gradient4);
      }

      .st35 {
        mask: url(#mask);
      }

      .st36 {
        fill: url(#linear-gradient8);
      }

      .st37 {
        fill: url(#linear-gradient5);
      }

      .st38 {
        fill: url(#linear-gradient11);
      }

      .st3 {
        stroke: url(#linear-gradient9);
      }

      .st3, .st4, .st5, .st7 {
        stroke-width: 1.44px;
      }

      .st4 {
        stroke: url(#linear-gradient7);
      }

      .st5 {
        stroke: url(#linear-gradient6);
      }

      .st39 {
        fill: #b0c1f0;
      }

      .st40 {
        mask: url(#mask-2);
      }

      .st41 {
        mask: url(#mask-3);
      }

      .st42 {
        mask: url(#mask-1);
      }

      .st6 {
        stroke: url(#linear-gradient2);
        stroke-dasharray: 5.03 47.47;
        stroke-width: 24.46px;
      }

      .st43 {
        fill: #101114;
      }

      .st44 {
        fill: #000513;
      }

      .st45 {
        fill: #fff;
      }

      .st7 {
        stroke: url(#linear-gradient10);
      }

      .st46 {
        opacity: .3;
      }

      .st8 {
        stroke: url(#linear-gradient);
      }

      .st47 {
        fill: #1dbbff;
      }

      .st9 {
        stroke: url(#linear-gradient22);
      }

      .st10 {
        stroke: url(#linear-gradient23);
      }

      .st11 {
        stroke: url(#linear-gradient26);
      }

      .st12 {
        stroke: url(#linear-gradient27);
      }

      .st13 {
        stroke: url(#linear-gradient25);
      }

      .st14 {
        stroke: url(#linear-gradient29);
      }

      .st15 {
        stroke: url(#linear-gradient24);
      }

      .st16 {
        stroke: url(#linear-gradient21);
      }

      .st17 {
        stroke: url(#linear-gradient20);
      }

      .st18 {
        stroke: url(#linear-gradient28);
      }

      .st19 {
        stroke: url(#linear-gradient13);
      }

      .st20 {
        stroke: url(#linear-gradient18);
      }

      .st21 {
        stroke: url(#linear-gradient14);
      }

      .st22 {
        stroke: url(#linear-gradient16);
      }

      .st23 {
        stroke: url(#linear-gradient19);
      }

      .st24 {
        stroke: url(#linear-gradient15);
      }

      .st25 {
        stroke: url(#linear-gradient12);
      }

      .st26 {
        stroke: url(#linear-gradient17);
      }

      .st27 {
        stroke: url(#linear-gradient36);
      }

      .st28 {
        stroke: url(#linear-gradient33);
      }

      .st29 {
        stroke: url(#linear-gradient34);
      }

      .st30 {
        stroke: url(#linear-gradient35);
      }

      .st31 {
        stroke: url(#linear-gradient37);
      }

      .st32 {
        stroke: url(#linear-gradient32);
      }

      .st33 {
        stroke: url(#linear-gradient31);
      }

      .st34 {
        stroke: url(#linear-gradient30);
      }
    </style>
    <linearGradient id="linear-gradient" x1="-159.75" y1="855.96" x2="-22.09" y2="562.81" gradientTransform="translate(604 1312) scale(1 -1)" gradientUnits="userSpaceOnUse">
      <stop offset="0" stop-color="#1dbbff" stop-opacity="0"/>
      <stop offset=".46" stop-color="#1dbbff"/>
      <stop offset="1" stop-color="#1dbbff" stop-opacity="0"/>
    </linearGradient>
    <linearGradient id="linear-gradient1" x1="-275.81" y1="855.67" x2="-602.1" y2="783.34" xlink:href="#linear-gradient"/>
    <linearGradient id="linear-gradient2" x1="-215.37" y1="1254.14" x2="-127.98" y2="522.29" gradientTransform="translate(604 1312) scale(1 -1)" gradientUnits="userSpaceOnUse">
      <stop offset="0" stop-color="#1dbbff" stop-opacity="0"/>
      <stop offset=".47" stop-color="#1dbbff" stop-opacity=".8"/>
      <stop offset="1" stop-color="#1dbbff" stop-opacity="0"/>
    </linearGradient>
    <linearGradient id="linear-gradient3" x1="-162.42" y1="861.62" x2="-58.59" y2="640.55" xlink:href="#linear-gradient"/>
    <linearGradient id="linear-gradient4" x1="-249.94" y1="861.41" x2="-496.01" y2="806.86" xlink:href="#linear-gradient"/>
    <linearGradient id="linear-gradient5" x1="-68.8" y1="1048.9" x2="-160.51" y2="924.83" gradientTransform="translate(604 1312) scale(1 -1)" gradientUnits="userSpaceOnUse">
      <stop offset="0" stop-color="#101114"/>
      <stop offset="1" stop-color="#656b7a"/>
    </linearGradient>
    <mask id="mask" x="172.3" y="140.98" width="553.15" height="335.18" maskUnits="userSpaceOnUse">
      <g id="path-7-inside-1_132_505">
        <path class="st45" d="M692.81,473.54c13.63,2.13,20.45,3.2,25.41-.82,4.96-4.01,5.32-10.45,6.05-23.34,3.39-60.24-12-120.32-44.44-171.75-37.57-59.58-95.46-103.53-162.94-123.72-67.49-20.18-140-15.23-204.11,13.94-55.35,25.18-101.2,66.94-131.44,119.16-6.47,11.17-9.71,16.76-7.76,22.83,1.95,6.07,8.23,8.93,20.79,14.63l49.45,22.45c11.83,5.37,17.74,8.06,22.83,6.6,5.09-1.46,9.16-7.58,17.3-19.84,18.46-27.79,44.43-50.05,75.14-64.02,39.5-17.97,84.17-21.02,125.74-8.59,41.57,12.43,77.23,39.51,100.38,76.21,18,28.54,27.48,61.4,27.66,94.76.08,14.71.12,22.07,3.57,26.08,3.45,4.01,9.87,5.02,22.71,7.02l53.66,8.39Z"/>
      </g>
    </mask>
    <linearGradient id="linear-gradient6" x1="-114.25" y1="886.53" x2="-21.64" y2="689.31" xlink:href="#linear-gradient"/>
    <mask id="mask-1" x="172.3" y="140.98" width="553.15" height="335.18" maskUnits="userSpaceOnUse">
      <g id="path-7-inside-1_132_5051" data-name="path-7-inside-1_132_505">
        <path class="st45" d="M692.81,473.54c13.63,2.13,20.45,3.2,25.41-.82,4.96-4.01,5.32-10.45,6.05-23.34,3.39-60.24-12-120.32-44.44-171.75-37.57-59.58-95.46-103.53-162.94-123.72-67.49-20.18-140-15.23-204.11,13.94-55.35,25.18-101.2,66.94-131.44,119.16-6.47,11.17-9.71,16.76-7.76,22.83,1.95,6.07,8.23,8.93,20.79,14.63l49.45,22.45c11.83,5.37,17.74,8.06,22.83,6.6,5.09-1.46,9.16-7.58,17.3-19.84,18.46-27.79,44.43-50.05,75.14-64.02,39.5-17.97,84.17-21.02,125.74-8.59,41.57,12.43,77.23,39.51,100.38,76.21,18,28.54,27.48,61.4,27.66,94.76.08,14.71.12,22.07,3.57,26.08,3.45,4.01,9.87,5.02,22.71,7.02l53.66,8.39Z"/>
      </g>
    </mask>
    <linearGradient id="linear-gradient7" x1="-261.9" y1="955.91" x2="-481.42" y2="907.25" xlink:href="#linear-gradient"/>
    <linearGradient id="linear-gradient8" x1="-163.97" y1="780.53" x2="-142.03" y2="591" xlink:href="#linear-gradient5"/>
    <mask id="mask-2" x="141.4" y="332.3" width="580.92" height="392.73" maskUnits="userSpaceOnUse">
      <g id="path-8-inside-2_132_505">
        <path class="st45" d="M188.38,338.79c-12.88-4.95-19.32-7.43-25.01-4.55-5.69,2.88-7.4,9.1-10.83,21.55-8.44,30.71-11.81,62.66-9.9,94.58,2.48,41.52,13.82,82.02,33.25,118.79,19.44,36.77,46.52,68.95,79.43,94.37,32.91,25.43,70.88,43.51,111.37,53.04,40.48,9.53,82.54,10.28,123.33,2.2,40.8-8.08,79.39-24.8,113.18-49.04,33.79-24.24,62.01-55.43,82.74-91.49,15.94-27.72,27.18-57.82,33.32-89.07,2.49-12.67,3.73-19-.08-24.11-3.81-5.11-10.68-5.77-24.41-7.08l-54.06-5.16c-12.93-1.24-19.4-1.85-23.74,1.18-4.34,3.03-6.2,10.15-9.92,24.38-4.02,15.4-10.09,30.23-18.06,44.1-12.77,22.21-30.15,41.43-50.97,56.36-20.82,14.93-44.59,25.23-69.72,30.21-25.13,4.98-51.04,4.52-75.98-1.35-24.94-5.87-48.33-17.01-68.61-32.67-20.27-15.66-36.96-35.49-48.93-58.14-11.97-22.65-18.96-47.6-20.49-73.17-.95-15.97.24-31.95,3.5-47.53,3.02-14.4,4.53-21.6,2-26.25-2.53-4.65-8.59-6.98-20.72-11.64l-50.69-19.49Z"/>
      </g>
    </mask>
    <linearGradient id="linear-gradient9" x1="-184.13" y1="853.71" x2="-91.51" y2="656.5" xlink:href="#linear-gradient"/>
    <mask id="mask-3" x="141.4" y="332.3" width="580.92" height="392.73" maskUnits="userSpaceOnUse">
      <g id="path-8-inside-2_132_5051" data-name="path-8-inside-2_132_505">
        <path class="st45" d="M188.38,338.79c-12.88-4.95-19.32-7.43-25.01-4.55-5.69,2.88-7.4,9.1-10.83,21.55-8.44,30.71-11.81,62.66-9.9,94.58,2.48,41.52,13.82,82.02,33.25,118.79,19.44,36.77,46.52,68.95,79.43,94.37,32.91,25.43,70.88,43.51,111.37,53.04,40.48,9.53,82.54,10.28,123.33,2.2,40.8-8.08,79.39-24.8,113.18-49.04,33.79-24.24,62.01-55.43,82.74-91.49,15.94-27.72,27.18-57.82,33.32-89.07,2.49-12.67,3.73-19-.08-24.11-3.81-5.11-10.68-5.77-24.41-7.08l-54.06-5.16c-12.93-1.24-19.4-1.85-23.74,1.18-4.34,3.03-6.2,10.15-9.92,24.38-4.02,15.4-10.09,30.23-18.06,44.1-12.77,22.21-30.15,41.43-50.97,56.36-20.82,14.93-44.59,25.23-69.72,30.21-25.13,4.98-51.04,4.52-75.98-1.35-24.94-5.87-48.33-17.01-68.61-32.67-20.27-15.66-36.96-35.49-48.93-58.14-11.97-22.65-18.96-47.6-20.49-73.17-.95-15.97.24-31.95,3.5-47.53,3.02-14.4,4.53-21.6,2-26.25-2.53-4.65-8.59-6.98-20.72-11.64l-50.69-19.49Z"/>
      </g>
    </mask>
    <linearGradient id="linear-gradient10" x1="-226.65" y1="796.88" x2="-446.16" y2="748.21" xlink:href="#linear-gradient"/>
    <linearGradient id="linear-gradient11" x1="-213.87" y1="881.36" x2="-81.88" y2="874.17" gradientTransform="translate(604 1312) scale(1 -1)" gradientUnits="userSpaceOnUse">
      <stop offset="0" stop-color="#363636"/>
      <stop offset="1" stop-color="#353535"/>
    </linearGradient>
    <linearGradient id="linear-gradient12" x1="-168.78" y1="875.17" x2="-145.91" y2="826.48" xlink:href="#linear-gradient"/>
    <linearGradient id="linear-gradient13" x1="-188.06" y1="875.12" x2="-242.26" y2="863.11" xlink:href="#linear-gradient"/>
    <linearGradient id="linear-gradient14" x1="56.95" y1="828.15" x2="59.92" y2="821.82" xlink:href="#linear-gradient"/>
    <linearGradient id="linear-gradient15" x1="54.44" y1="828.15" x2="47.39" y2="826.59" xlink:href="#linear-gradient"/>
    <linearGradient id="linear-gradient16" x1="-378.93" y1="997.18" x2="-375.96" y2="990.85" xlink:href="#linear-gradient"/>
    <linearGradient id="linear-gradient17" x1="-381.44" y1="997.18" x2="-388.48" y2="995.61" xlink:href="#linear-gradient"/>
    <linearGradient id="linear-gradient18" x1="-260.97" y1="941.08" x2="-258" y2="934.75" xlink:href="#linear-gradient"/>
    <linearGradient id="linear-gradient19" x1="-263.48" y1="941.07" x2="-270.52" y2="939.51" xlink:href="#linear-gradient"/>
    <linearGradient id="linear-gradient20" x1="-266.72" y1="878.5" x2="-263.75" y2="872.17" xlink:href="#linear-gradient"/>
    <linearGradient id="linear-gradient21" x1="-269.23" y1="878.5" x2="-276.28" y2="876.93" xlink:href="#linear-gradient"/>
    <linearGradient id="linear-gradient22" x1="-242.27" y1="797.22" x2="-239.3" y2="790.89" xlink:href="#linear-gradient"/>
    <linearGradient id="linear-gradient23" x1="-244.78" y1="797.22" x2="-251.82" y2="795.66" xlink:href="#linear-gradient"/>
    <linearGradient id="linear-gradient24" x1="-170.34" y1="778.52" x2="-167.37" y2="772.19" xlink:href="#linear-gradient"/>
    <linearGradient id="linear-gradient25" x1="-172.85" y1="778.52" x2="-179.89" y2="776.96" xlink:href="#linear-gradient"/>
    <linearGradient id="linear-gradient26" x1="-89.07" y1="815.93" x2="-86.09" y2="809.6" xlink:href="#linear-gradient"/>
    <linearGradient id="linear-gradient27" x1="-91.57" y1="815.92" x2="-98.62" y2="814.36" xlink:href="#linear-gradient"/>
    <linearGradient id="linear-gradient28" x1="-73.96" y1="874.19" x2="-70.99" y2="867.86" xlink:href="#linear-gradient"/>
    <linearGradient id="linear-gradient29" x1="-76.47" y1="874.18" x2="-83.51" y2="872.62" xlink:href="#linear-gradient"/>
    <linearGradient id="linear-gradient30" x1="-202.71" y1="984.23" x2="-199.74" y2="977.9" xlink:href="#linear-gradient"/>
    <linearGradient id="linear-gradient31" x1="-205.22" y1="984.23" x2="-212.26" y2="982.67" xlink:href="#linear-gradient"/>
    <linearGradient id="linear-gradient32" x1="-83.31" y1="932.45" x2="-80.34" y2="926.12" xlink:href="#linear-gradient"/>
    <linearGradient id="linear-gradient33" x1="-85.82" y1="932.44" x2="-92.86" y2="930.88" xlink:href="#linear-gradient"/>
    <linearGradient id="linear-gradient34" x1="-114.24" y1="965.53" x2="-111.27" y2="959.2" xlink:href="#linear-gradient"/>
    <linearGradient id="linear-gradient35" x1="-116.75" y1="965.53" x2="-123.79" y2="963.97" xlink:href="#linear-gradient"/>
    <linearGradient id="linear-gradient36" x1="-145.17" y1="998.62" x2="-142.2" y2="992.29" xlink:href="#linear-gradient"/>
    <linearGradient id="linear-gradient37" x1="-147.67" y1="998.61" x2="-154.72" y2="997.05" xlink:href="#linear-gradient"/>
  </defs>
  <g class="st46">
    <g>
      <circle class="st43" cx="433.42" cy="433" r="433"/>
      <circle class="st8" cx="433.42" cy="433" r="432.64"/>
      <circle class="st0" cx="433.42" cy="433" r="432.64"/>
    </g>
    <circle class="st6" cx="433.42" cy="433" r="368.27"/>
    <circle cx="433.42" cy="433" r="328.71"/>
    <g>
      <circle class="st44" cx="433.42" cy="433" r="326.55"/>
      <circle class="st1" cx="433.42" cy="433" r="326.19"/>
      <circle class="st2" cx="433.42" cy="433" r="326.19"/>
    </g>
    <g>
      <path class="st37" d="M692.81,473.54c13.63,2.13,20.45,3.2,25.41-.82,4.96-4.01,5.32-10.45,6.05-23.34,3.39-60.24-12-120.32-44.44-171.75-37.57-59.58-95.46-103.53-162.94-123.72-67.49-20.18-140-15.23-204.11,13.94-55.35,25.18-101.2,66.94-131.44,119.16-6.47,11.17-9.71,16.76-7.76,22.83,1.95,6.07,8.23,8.93,20.79,14.63l49.45,22.45c11.83,5.37,17.74,8.06,22.83,6.6,5.09-1.46,9.16-7.58,17.3-19.84,18.46-27.79,44.43-50.05,75.14-64.02,39.5-17.97,84.17-21.02,125.74-8.59,41.57,12.43,77.23,39.51,100.38,76.21,18,28.54,27.48,61.4,27.66,94.76.08,14.71.12,22.07,3.57,26.08,3.45,4.01,9.87,5.02,22.71,7.02l53.66,8.39Z"/>
      <g class="st35">
        <path class="st5" d="M692.81,473.54c13.63,2.13,20.45,3.2,25.41-.82,4.96-4.01,5.32-10.45,6.05-23.34,3.39-60.24-12-120.32-44.44-171.75-37.57-59.58-95.46-103.53-162.94-123.72-67.49-20.18-140-15.23-204.11,13.94-55.35,25.18-101.2,66.94-131.44,119.16-6.47,11.17-9.71,16.76-7.76,22.83,1.95,6.07,8.23,8.93,20.79,14.63l49.45,22.45c11.83,5.37,17.74,8.06,22.83,6.6,5.09-1.46,9.16-7.58,17.3-19.84,18.46-27.79,44.43-50.05,75.14-64.02,39.5-17.97,84.17-21.02,125.74-8.59,41.57,12.43,77.23,39.51,100.38,76.21,18,28.54,27.48,61.4,27.66,94.76.08,14.71.12,22.07,3.57,26.08,3.45,4.01,9.87,5.02,22.71,7.02l53.66,8.39Z"/>
      </g>
      <g class="st42">
        <path class="st4" d="M692.81,473.54c13.63,2.13,20.45,3.2,25.41-.82,4.96-4.01,5.32-10.45,6.05-23.34,3.39-60.24-12-120.32-44.44-171.75-37.57-59.58-95.46-103.53-162.94-123.72-67.49-20.18-140-15.23-204.11,13.94-55.35,25.18-101.2,66.94-131.44,119.16-6.47,11.17-9.71,16.76-7.76,22.83,1.95,6.07,8.23,8.93,20.79,14.63l49.45,22.45c11.83,5.37,17.74,8.06,22.83,6.6,5.09-1.46,9.16-7.58,17.3-19.84,18.46-27.79,44.43-50.05,75.14-64.02,39.5-17.97,84.17-21.02,125.74-8.59,41.57,12.43,77.23,39.51,100.38,76.21,18,28.54,27.48,61.4,27.66,94.76.08,14.71.12,22.07,3.57,26.08,3.45,4.01,9.87,5.02,22.71,7.02l53.66,8.39Z"/>
      </g>
    </g>
    <g>
      <path class="st36" d="M188.38,338.79c-12.88-4.95-19.32-7.43-25.01-4.55-5.69,2.88-7.4,9.1-10.83,21.55-8.44,30.71-11.81,62.66-9.9,94.58,2.48,41.52,13.82,82.02,33.25,118.79,19.44,36.77,46.52,68.95,79.43,94.37,32.91,25.43,70.88,43.51,111.37,53.04,40.48,9.53,82.54,10.28,123.33,2.2,40.8-8.08,79.39-24.8,113.18-49.04,33.79-24.24,62.01-55.43,82.74-91.49,15.94-27.72,27.18-57.82,33.32-89.07,2.49-12.67,3.73-19-.08-24.11-3.81-5.11-10.68-5.77-24.41-7.08l-54.06-5.16c-12.93-1.24-19.4-1.85-23.74,1.18-4.34,3.03-6.2,10.15-9.92,24.38-4.02,15.4-10.09,30.23-18.06,44.1-12.77,22.21-30.15,41.43-50.97,56.36-20.82,14.93-44.59,25.23-69.72,30.21-25.13,4.98-51.04,4.52-75.98-1.35-24.94-5.87-48.33-17.01-68.61-32.67-20.27-15.66-36.96-35.49-48.93-58.14-11.97-22.65-18.96-47.6-20.49-73.17-.95-15.97.24-31.95,3.5-47.53,3.02-14.4,4.53-21.6,2-26.25-2.53-4.65-8.59-6.98-20.72-11.64l-50.69-19.49Z"/>
      <g class="st40">
        <path class="st3" d="M188.38,338.79c-12.88-4.95-19.32-7.43-25.01-4.55-5.69,2.88-7.4,9.1-10.83,21.55-8.44,30.71-11.81,62.66-9.9,94.58,2.48,41.52,13.82,82.02,33.25,118.79,19.44,36.77,46.52,68.95,79.43,94.37,32.91,25.43,70.88,43.51,111.37,53.04,40.48,9.53,82.54,10.28,123.33,2.2,40.8-8.08,79.39-24.8,113.18-49.04,33.79-24.24,62.01-55.43,82.74-91.49,15.94-27.72,27.18-57.82,33.32-89.07,2.49-12.67,3.73-19-.08-24.11-3.81-5.11-10.68-5.77-24.41-7.08l-54.06-5.16c-12.93-1.24-19.4-1.85-23.74,1.18-4.34,3.03-6.2,10.15-9.92,24.38-4.02,15.4-10.09,30.23-18.06,44.1-12.77,22.21-30.15,41.43-50.97,56.36-20.82,14.93-44.59,25.23-69.72,30.21-25.13,4.98-51.04,4.52-75.98-1.35-24.94-5.87-48.33-17.01-68.61-32.67-20.27-15.66-36.96-35.49-48.93-58.14-11.97-22.65-18.96-47.6-20.49-73.17-.95-15.97.24-31.95,3.5-47.53,3.02-14.4,4.53-21.6,2-26.25-2.53-4.65-8.59-6.98-20.72-11.64l-50.69-19.49Z"/>
      </g>
      <g class="st41">
        <path class="st7" d="M188.38,338.79c-12.88-4.95-19.32-7.43-25.01-4.55-5.69,2.88-7.4,9.1-10.83,21.55-8.44,30.71-11.81,62.66-9.9,94.58,2.48,41.52,13.82,82.02,33.25,118.79,19.44,36.77,46.52,68.95,79.43,94.37,32.91,25.43,70.88,43.51,111.37,53.04,40.48,9.53,82.54,10.28,123.33,2.2,40.8-8.08,79.39-24.8,113.18-49.04,33.79-24.24,62.01-55.43,82.74-91.49,15.94-27.72,27.18-57.82,33.32-89.07,2.49-12.67,3.73-19-.08-24.11-3.81-5.11-10.68-5.77-24.41-7.08l-54.06-5.16c-12.93-1.24-19.4-1.85-23.74,1.18-4.34,3.03-6.2,10.15-9.92,24.38-4.02,15.4-10.09,30.23-18.06,44.1-12.77,22.21-30.15,41.43-50.97,56.36-20.82,14.93-44.59,25.23-69.72,30.21-25.13,4.98-51.04,4.52-75.98-1.35-24.94-5.87-48.33-17.01-68.61-32.67-20.27-15.66-36.96-35.49-48.93-58.14-11.97-22.65-18.96-47.6-20.49-73.17-.95-15.97.24-31.95,3.5-47.53,3.02-14.4,4.53-21.6,2-26.25-2.53-4.65-8.59-6.98-20.72-11.64l-50.69-19.49Z"/>
      </g>
    </g>
    <circle class="st38" cx="433.42" cy="433" r="160.4"/>
    <path d="M419.76,399.89c8.46-4.88,18.88-4.88,27.33,0l8.17,4.72c8.46,4.88,13.67,13.91,13.67,23.67v9.44c0,9.77-5.21,18.79-13.67,23.67l-8.17,4.72c-8.46,4.88-18.88,4.88-27.33,0l-8.17-4.72c-8.46-4.88-13.67-13.91-13.67-23.67v-9.44c0-9.76,5.21-18.79,13.67-23.67l8.17-4.72Z"/>
    <g>
      <path class="st44" d="M419.04,369.38c7.02-4.05,10.53-6.08,14.39-6.08s7.36,2.03,14.39,6.08l33.52,19.35c7.02,4.05,10.53,6.08,12.46,9.42,1.93,3.34,1.93,7.39,1.93,15.5v38.71c0,8.11,0,12.16-1.93,15.5-1.93,3.34-5.44,5.36-12.46,9.42l-33.52,19.35c-7.02,4.05-10.53,6.08-14.39,6.08s-7.36-2.03-14.39-6.08l-33.52-19.35c-7.02-4.05-10.53-6.08-12.46-9.42-1.93-3.34-1.93-7.39-1.93-15.5v-38.71c0-8.11,0-12.16,1.93-15.5,1.93-3.34,5.44-5.36,12.46-9.42l33.52-19.35Z"/>
      <path class="st25" d="M433.42,363.66c1.86,0,3.65.49,5.86,1.49,2.22,1.01,4.83,2.51,8.35,4.54l33.52,19.35c3.52,2.03,6.13,3.54,8.11,4.96,1.97,1.41,3.29,2.72,4.22,4.33.93,1.61,1.4,3.4,1.64,5.82.24,2.42.24,5.44.24,9.5v38.7c0,4.06,0,7.08-.24,9.5-.24,2.42-.71,4.21-1.64,5.82-.93,1.61-2.25,2.92-4.22,4.33-1.98,1.42-4.59,2.93-8.11,4.96l-33.52,19.35c-3.52,2.03-6.13,3.54-8.35,4.54-2.21,1-4,1.49-5.86,1.49s-3.65-.49-5.86-1.49c-2.22-1-4.83-2.51-8.35-4.54l-33.52-19.35c-3.52-2.03-6.13-3.54-8.11-4.96-1.97-1.41-3.29-2.72-4.22-4.33-.93-1.61-1.4-3.4-1.64-5.82-.24-2.42-.24-5.44-.24-9.5v-38.7c0-4.06,0-7.08.24-9.5.24-2.41.71-4.21,1.64-5.82.93-1.61,2.24-2.92,4.22-4.33,1.98-1.42,4.59-2.93,8.11-4.96l33.52-19.35c3.52-2.03,6.13-3.54,8.35-4.54,2.21-1,4-1.49,5.86-1.49Z"/>
      <path class="st19" d="M433.42,363.66c1.86,0,3.65.49,5.86,1.49,2.22,1.01,4.83,2.51,8.35,4.54l33.52,19.35c3.52,2.03,6.13,3.54,8.11,4.96,1.97,1.41,3.29,2.72,4.22,4.33.93,1.61,1.4,3.4,1.64,5.82.24,2.42.24,5.44.24,9.5v38.7c0,4.06,0,7.08-.24,9.5-.24,2.42-.71,4.21-1.64,5.82-.93,1.61-2.25,2.92-4.22,4.33-1.98,1.42-4.59,2.93-8.11,4.96l-33.52,19.35c-3.52,2.03-6.13,3.54-8.35,4.54-2.21,1-4,1.49-5.86,1.49s-3.65-.49-5.86-1.49c-2.22-1-4.83-2.51-8.35-4.54l-33.52-19.35c-3.52-2.03-6.13-3.54-8.11-4.96-1.97-1.41-3.29-2.72-4.22-4.33-.93-1.61-1.4-3.4-1.64-5.82-.24-2.42-.24-5.44-.24-9.5v-38.7c0-4.06,0-7.08.24-9.5.24-2.41.71-4.21,1.64-5.82.93-1.61,2.24-2.92,4.22-4.33,1.98-1.42,4.59-2.93,8.11-4.96l33.52-19.35c3.52-2.03,6.13-3.54,8.35-4.54,2.21-1,4-1.49,5.86-1.49Z"/>
    </g>
    <path class="st47" d="M423.64,427.44l9.15-4.07c.4-.17.86-.17,1.25,0l9.15,4.07c.8.36,1.55-.61,1-1.3l-9.59-11.72c-.65-.81-1.73-.81-2.38,0l-9.59,11.72c-.54.69.21,1.67,1.02,1.3Z"/>
    <path class="st47" d="M423.64,438.56l9.17,4.07c.4.17.86.17,1.25,0l9.17-4.07c.81-.36,1.55.61,1,1.31l-9.59,11.72c-.65.8-1.73.8-2.38,0l-9.59-11.72c-.58-.69.15-1.67.98-1.31Z"/>
    <path class="st47" d="M433,428.18l-7.92,3.95c-.71.35-.71,1.36,0,1.71l7.92,3.95c.27.13.6.13.86,0l7.92-3.95c.71-.35.71-1.36,0-1.71l-7.92-3.95c-.29-.13-.59-.13-.86,0Z"/>
    <g>
      <circle class="st39" cx="660.71" cy="483.35" r="9.35"/>
      <circle class="st21" cx="660.71" cy="483.35" r="8.99"/>
      <circle class="st24" cx="660.71" cy="483.35" r="8.99"/>
    </g>
    <g>
      <circle class="st39" cx="224.84" cy="314.32" r="9.35"/>
      <circle class="st22" cx="224.84" cy="314.32" r="8.99"/>
      <circle class="st26" cx="224.84" cy="314.32" r="8.99"/>
    </g>
    <g>
      <circle class="st43" cx="342.8" cy="370.42" r="9.35"/>
      <circle class="st20" cx="342.8" cy="370.42" r="8.99"/>
      <circle class="st23" cx="342.8" cy="370.42" r="8.99"/>
    </g>
    <g>
      <circle class="st43" cx="337.04" cy="433" r="9.35"/>
      <circle class="st17" cx="337.04" cy="433" r="8.99"/>
      <circle class="st16" cx="337.04" cy="433" r="8.99"/>
    </g>
    <g>
      <circle class="st43" cx="361.5" cy="514.28" r="9.35"/>
      <circle class="st9" cx="361.5" cy="514.28" r="8.99"/>
      <circle class="st10" cx="361.5" cy="514.28" r="8.99"/>
    </g>
    <g>
      <circle class="st43" cx="433.42" cy="532.98" r="9.35"/>
      <circle class="st15" cx="433.42" cy="532.98" r="8.99"/>
      <circle class="st13" cx="433.42" cy="532.98" r="8.99"/>
    </g>
    <g>
      <circle class="st43" cx="514.7" cy="495.58" r="9.35"/>
      <circle class="st11" cx="514.7" cy="495.58" r="8.99"/>
      <circle class="st12" cx="514.7" cy="495.58" r="8.99"/>
    </g>
    <g>
      <circle class="st43" cx="529.81" cy="437.32" r="9.35"/>
      <circle class="st18" cx="529.81" cy="437.32" r="8.99"/>
      <circle class="st14" cx="529.81" cy="437.32" r="8.99"/>
    </g>
    <g>
      <circle class="st43" cx="401.06" cy="327.27" r="9.35"/>
      <circle class="st34" cx="401.06" cy="327.27" r="8.99"/>
      <circle class="st33" cx="401.06" cy="327.27" r="8.99"/>
    </g>
    <g>
      <circle class="st43" cx="520.46" cy="379.05" r="9.35"/>
      <circle class="st32" cx="520.46" cy="379.05" r="8.99"/>
      <circle class="st28" cx="520.46" cy="379.05" r="8.99"/>
    </g>
    <g>
      <circle class="st43" cx="489.53" cy="345.97" r="9.35"/>
      <circle class="st29" cx="489.53" cy="345.97" r="8.99"/>
      <circle class="st30" cx="489.53" cy="345.97" r="8.99"/>
    </g>
    <g>
      <circle class="st43" cx="458.6" cy="312.88" r="9.35"/>
      <circle class="st27" cx="458.6" cy="312.88" r="8.99"/>
      <circle class="st31" cx="458.6" cy="312.88" r="8.99"/>
    </g>
    <circle cx="433.42" cy="433" r="41"/>
    <path class="st47" d="M423.64,427.44l9.15-4.07c.4-.17.86-.17,1.25,0l9.15,4.07c.8.36,1.55-.61,1-1.3l-9.59-11.72c-.65-.81-1.73-.81-2.38,0l-9.59,11.72c-.54.69.21,1.67,1.02,1.3Z"/>
    <path class="st47" d="M423.64,438.56l9.17,4.07c.4.17.86.17,1.25,0l9.17-4.07c.81-.36,1.55.61,1,1.31l-9.59,11.72c-.65.8-1.73.8-2.38,0l-9.59-11.72c-.58-.69.15-1.67.98-1.31Z"/>
    <path class="st47" d="M433,428.18l-7.92,3.95c-.71.35-.71,1.36,0,1.71l7.92,3.95c.27.13.6.13.86,0l7.92-3.95c.71-.35.71-1.36,0-1.71l-7.92-3.95c-.29-.13-.59-.13-.86,0Z"/>
  </g>
</svg>